# xmcd
#
# Track frame offsets:
# 150
# 17951
# 37301
# 48700
# 62287
# 79765
# 99595
# 117595
# 132211
# 145260
# 164100
#
# Disc length: 2402 seconds
#
#
# Revision: 0
# Processed by: cddbd v1.5.2PL0 Copyright (c) Steve Scherf et al.
# Submitted via: FreeRIP 2.942 
#
DISCID=a209600b
DTITLE=VESLARI - Ja pojdem sam
DYEAR=2005
DGENRE=Country
TTITLE0=Blind Horses
TTITLE1=Ja pojdem sam
TTITLE2=Pada dazd
TTITLE3=Noham smer dam
TTITLE4=Dialnicna story
TTITLE5=Poslednykrat
TTITLE6=Rodeo
TTITLE7=Len preto
TTITLE8=Hellecaster
TTITLE9=Stratena laska
TTITLE10=Ghost Riders In The Sky
EXTD=
EXTT0=
EXTT1=
EXTT2=
EXTT3=
EXTT4=
EXTT5=
EXTT6=
EXTT7=
EXTT8=
EXTT9=
EXTT10=
PLAYORDER=
